<svg xmlns="http://www.w3.org/2000/svg" width="45" viewBox="0 0 45 45" height="45" version="1.0"><path fill="#FFF" d="M-4.5 -4.5H49.5V49.5H-4.5z"/><path fill="#FFF" d="M-4.5 -4.5H49.5V49.5H-4.5z"/><path fill="#FFF" d="M-4.5 -4.5H49.5V49.5H-4.5z"/><path fill="#A62626" d="M 21.203125 14.820312 C 14.3125 15.851562 9.238281 20.121094 9.871094 24.359375 C 10.507812 28.59375 16.609375 31.191406 23.5 30.160156 C 30.390625 29.128906 35.464844 24.859375 34.832031 20.621094 C 34.195312 16.386719 28.09375 13.789062 21.203125 14.820312"/><g fill="#FFF"><g><g><path d="M 3.75 -2.25 L 4.261719 -2.25 C 4.320312 -2.25 4.375 -2.304688 4.375 -2.367188 L 4.375 -2.90625 C 4.375 -2.980469 4.34375 -3.050781 4.289062 -3.105469 L 3.695312 -3.710938 C 3.636719 -3.773438 3.566406 -3.804688 3.46875 -3.804688 L 1.226562 -3.804688 C 1.132812 -3.804688 1.074219 -3.78125 1.003906 -3.710938 L 0.320312 -3.027344 C 0.273438 -2.980469 0.226562 -2.90625 0.226562 -2.828125 L 0.226562 -0.980469 C 0.226562 -0.882812 0.257812 -0.8125 0.320312 -0.753906 L 1.003906 -0.0820312 C 1.058594 -0.03125 1.125 0 1.203125 0 L 4.261719 0 C 4.320312 0 4.375 -0.0546875 4.375 -0.113281 L 4.375 -1.71875 C 4.375 -1.78125 4.320312 -1.832031 4.261719 -1.832031 L 1.757812 -1.832031 C 1.695312 -1.832031 1.644531 -1.78125 1.644531 -1.71875 L 1.644531 -1.195312 C 1.644531 -1.132812 1.695312 -1.082031 1.757812 -1.082031 L 3.621094 -1.082031 L 3.621094 -0.738281 L 1.445312 -0.738281 C 1.390625 -0.738281 1.355469 -0.753906 1.316406 -0.792969 L 1.085938 -1.035156 L 1.050781 -1.082031 C 1.035156 -1.101562 1.027344 -1.125 1.027344 -1.15625 L 1.027344 -2.632812 C 1.027344 -2.683594 1.042969 -2.722656 1.082031 -2.761719 L 1.324219 -2.988281 C 1.371094 -3.035156 1.398438 -3.050781 1.4375 -3.050781 L 3.277344 -3.050781 C 3.332031 -3.050781 3.355469 -3.027344 3.402344 -2.988281 L 3.582031 -2.824219 C 3.628906 -2.785156 3.636719 -2.746094 3.636719 -2.691406 L 3.636719 -2.367188 C 3.636719 -2.304688 3.691406 -2.25 3.75 -2.25 Z M 3.75 -2.25" transform="translate(15.674 24.568)"/></g></g></g><g fill="#FFF"><g><g><path d="M 0.226562 -2.375 C 0.226562 -2.273438 0.257812 -2.207031 0.320312 -2.144531 L 0.851562 -1.628906 C 0.90625 -1.582031 0.972656 -1.542969 1.050781 -1.542969 L 3.308594 -1.542969 C 3.363281 -1.542969 3.402344 -1.527344 3.4375 -1.492188 L 3.550781 -1.355469 C 3.566406 -1.332031 3.574219 -1.308594 3.574219 -1.277344 L 3.574219 -1.09375 C 3.574219 -1.042969 3.558594 -1.003906 3.523438 -0.964844 L 3.355469 -0.8125 C 3.308594 -0.777344 3.277344 -0.753906 3.242188 -0.753906 L 0.472656 -0.753906 C 0.410156 -0.753906 0.359375 -0.699219 0.359375 -0.640625 L 0.359375 -0.113281 C 0.359375 -0.0546875 0.410156 0 0.472656 0 L 3.453125 0 C 3.546875 0 3.605469 -0.0234375 3.675781 -0.0898438 L 4.28125 -0.699219 C 4.328125 -0.746094 4.375 -0.820312 4.375 -0.898438 L 4.375 -1.527344 C 4.375 -1.628906 4.34375 -1.703125 4.28125 -1.757812 L 3.828125 -2.199219 C 3.773438 -2.246094 3.703125 -2.28125 3.628906 -2.28125 L 1.292969 -2.28125 C 1.238281 -2.28125 1.203125 -2.296875 1.164062 -2.335938 L 1.050781 -2.472656 C 1.035156 -2.496094 1.027344 -2.519531 1.027344 -2.546875 L 1.027344 -2.707031 C 1.027344 -2.761719 1.042969 -2.800781 1.082031 -2.835938 L 1.246094 -2.988281 C 1.292969 -3.027344 1.324219 -3.050781 1.363281 -3.050781 L 4.054688 -3.050781 C 4.117188 -3.050781 4.167969 -3.105469 4.167969 -3.164062 L 4.167969 -3.691406 C 4.167969 -3.75 4.117188 -3.804688 4.054688 -3.804688 L 1.148438 -3.804688 C 1.058594 -3.804688 0.996094 -3.78125 0.929688 -3.710938 L 0.320312 -3.105469 C 0.273438 -3.058594 0.226562 -2.980469 0.226562 -2.90625 Z M 0.226562 -2.375" transform="translate(20.199 24.568)"/></g></g></g><g fill="#FFF"><g><g><path d="M 4.28125 -1.660156 L 3.910156 -2.023438 L 4.015625 -2.128906 C 4.078125 -2.191406 4.109375 -2.257812 4.109375 -2.359375 L 4.109375 -2.972656 C 4.109375 -3.074219 4.078125 -3.140625 4.015625 -3.203125 L 3.484375 -3.71875 C 3.429688 -3.765625 3.363281 -3.804688 3.285156 -3.804688 L 0.34375 -3.804688 C 0.28125 -3.804688 0.226562 -3.75 0.226562 -3.691406 L 0.226562 -0.113281 C 0.226562 -0.0546875 0.28125 0 0.34375 0 L 3.550781 0 C 3.628906 0 3.695312 -0.0390625 3.75 -0.0820312 L 4.28125 -0.601562 C 4.34375 -0.660156 4.375 -0.730469 4.375 -0.828125 L 4.375 -1.429688 C 4.375 -1.527344 4.34375 -1.597656 4.28125 -1.660156 Z M 3.089844 -3.066406 C 3.140625 -3.066406 3.1875 -3.050781 3.21875 -3.011719 L 3.332031 -2.875 C 3.347656 -2.851562 3.355469 -2.828125 3.355469 -2.800781 L 3.355469 -2.535156 C 3.355469 -2.503906 3.347656 -2.480469 3.332031 -2.457031 L 3.21875 -2.320312 C 3.1875 -2.28125 3.140625 -2.265625 3.089844 -2.265625 L 0.972656 -2.265625 L 0.972656 -3.066406 Z M 3.621094 -1.003906 C 3.621094 -0.972656 3.613281 -0.949219 3.597656 -0.929688 L 3.484375 -0.792969 C 3.453125 -0.753906 3.40625 -0.738281 3.355469 -0.738281 L 0.972656 -0.738281 L 0.972656 -1.519531 L 3.355469 -1.519531 C 3.40625 -1.519531 3.453125 -1.507812 3.484375 -1.46875 L 3.597656 -1.332031 C 3.613281 -1.308594 3.621094 -1.285156 3.621094 -1.253906 Z M 3.621094 -1.003906" transform="translate(24.725 24.568)"/></g></g></g></svg>