<svg xmlns="http://www.w3.org/2000/svg" width="224.88" viewBox="0 0 224.88 225" height="225" version="1.0"><path fill="#A62626" d="M 101.359375 46.910156 C 42.5 55.726562 -0.828125 92.199219 4.589844 128.375 C 10.007812 164.554688 62.117188 186.738281 120.976562 177.925781 C 179.839844 169.113281 223.164062 132.636719 217.75 96.460938 C 212.332031 60.28125 160.222656 38.097656 101.359375 46.910156"/><g fill="#FFF"><g><g><path d="M 32.03125 -19.230469 L 36.382812 -19.230469 C 36.902344 -19.230469 37.359375 -19.6875 37.359375 -20.207031 L 37.359375 -24.820312 C 37.359375 -25.46875 37.097656 -26.054688 36.644531 -26.507812 L 31.574219 -31.707031 C 31.054688 -32.226562 30.472656 -32.484375 29.625 -32.484375 L 10.460938 -32.484375 C 9.679688 -32.484375 9.160156 -32.289062 8.574219 -31.707031 L 2.730469 -25.859375 C 2.339844 -25.46875 1.949219 -24.820312 1.949219 -24.167969 L 1.949219 -8.382812 C 1.949219 -7.535156 2.210938 -6.953125 2.730469 -6.433594 L 8.574219 -0.714844 C 9.03125 -0.261719 9.617188 0 10.265625 0 L 36.382812 0 C 36.902344 0 37.359375 -0.453125 37.359375 -0.972656 L 37.359375 -14.683594 C 37.359375 -15.203125 36.902344 -15.65625 36.382812 -15.65625 L 15.007812 -15.65625 C 14.488281 -15.65625 14.035156 -15.203125 14.035156 -14.683594 L 14.035156 -10.199219 C 14.035156 -9.679688 14.488281 -9.226562 15.007812 -9.226562 L 30.925781 -9.226562 L 30.925781 -6.300781 L 12.34375 -6.300781 C 11.890625 -6.300781 11.566406 -6.433594 11.238281 -6.757812 L 9.289062 -8.835938 L 8.964844 -9.226562 C 8.835938 -9.421875 8.769531 -9.617188 8.769531 -9.875 L 8.769531 -22.480469 C 8.769531 -22.933594 8.902344 -23.257812 9.226562 -23.585938 L 11.304688 -25.535156 C 11.695312 -25.921875 11.953125 -26.054688 12.28125 -26.054688 L 28.003906 -26.054688 C 28.457031 -26.054688 28.652344 -25.859375 29.042969 -25.535156 L 30.601562 -24.105469 C 30.992188 -23.777344 31.054688 -23.453125 31.054688 -23 L 31.054688 -20.207031 C 31.054688 -19.6875 31.511719 -19.230469 32.03125 -19.230469 Z M 32.03125 -19.230469" transform="translate(54.138 130.162)"/></g></g></g><g fill="#FFF"><g><g><path d="M 1.949219 -20.269531 C 1.949219 -19.425781 2.210938 -18.839844 2.730469 -18.320312 L 7.277344 -13.902344 C 7.730469 -13.515625 8.316406 -13.1875 8.964844 -13.1875 L 28.261719 -13.1875 C 28.71875 -13.1875 29.042969 -13.058594 29.367188 -12.734375 L 30.339844 -11.566406 C 30.472656 -11.371094 30.535156 -11.175781 30.535156 -10.914062 L 30.535156 -9.355469 C 30.535156 -8.902344 30.40625 -8.574219 30.082031 -8.25 L 28.652344 -6.953125 C 28.261719 -6.628906 28.003906 -6.433594 27.675781 -6.433594 L 4.027344 -6.433594 C 3.507812 -6.433594 3.054688 -5.976562 3.054688 -5.457031 L 3.054688 -0.972656 C 3.054688 -0.453125 3.507812 0 4.027344 0 L 29.496094 0 C 30.277344 0 30.796875 -0.195312 31.378906 -0.78125 L 36.578125 -5.976562 C 36.96875 -6.367188 37.359375 -7.015625 37.359375 -7.667969 L 37.359375 -13.058594 C 37.359375 -13.902344 37.097656 -14.554688 36.578125 -15.007812 L 32.679688 -18.777344 C 32.226562 -19.167969 31.640625 -19.492188 30.992188 -19.492188 L 11.046875 -19.492188 C 10.589844 -19.492188 10.265625 -19.621094 9.941406 -19.945312 L 8.964844 -21.117188 C 8.835938 -21.308594 8.769531 -21.503906 8.769531 -21.765625 L 8.769531 -23.128906 C 8.769531 -23.585938 8.902344 -23.910156 9.226562 -24.234375 L 10.65625 -25.535156 C 11.046875 -25.859375 11.304688 -26.054688 11.628906 -26.054688 L 34.628906 -26.054688 C 35.148438 -26.054688 35.605469 -26.507812 35.605469 -27.027344 L 35.605469 -31.511719 C 35.605469 -32.03125 35.148438 -32.484375 34.628906 -32.484375 L 9.8125 -32.484375 C 9.03125 -32.484375 8.511719 -32.289062 7.925781 -31.707031 L 2.730469 -26.507812 C 2.339844 -26.117188 1.949219 -25.46875 1.949219 -24.820312 Z M 1.949219 -20.269531" transform="translate(92.788 130.162)"/></g></g></g><g fill="#FFF"><g><g><path d="M 36.578125 -14.164062 L 33.394531 -17.28125 L 34.304688 -18.191406 C 34.824219 -18.710938 35.085938 -19.296875 35.085938 -20.140625 L 35.085938 -25.402344 C 35.085938 -26.25 34.824219 -26.832031 34.304688 -27.351562 L 29.757812 -31.769531 C 29.300781 -32.160156 28.71875 -32.484375 28.066406 -32.484375 L 2.921875 -32.484375 C 2.402344 -32.484375 1.949219 -32.03125 1.949219 -31.511719 L 1.949219 -0.972656 C 1.949219 -0.453125 2.402344 0 2.921875 0 L 30.339844 0 C 30.992188 0 31.574219 -0.324219 32.03125 -0.714844 L 36.578125 -5.132812 C 37.097656 -5.652344 37.359375 -6.238281 37.359375 -7.082031 L 37.359375 -12.214844 C 37.359375 -13.058594 37.097656 -13.644531 36.578125 -14.164062 Z M 26.378906 -26.183594 C 26.832031 -26.183594 27.222656 -26.054688 27.484375 -25.726562 L 28.457031 -24.558594 C 28.585938 -24.363281 28.652344 -24.167969 28.652344 -23.910156 L 28.652344 -21.636719 C 28.652344 -21.375 28.585938 -21.179688 28.457031 -20.984375 L 27.484375 -19.816406 C 27.222656 -19.492188 26.832031 -19.359375 26.378906 -19.359375 L 8.316406 -19.359375 L 8.316406 -26.183594 Z M 30.925781 -8.574219 C 30.925781 -8.316406 30.859375 -8.121094 30.730469 -7.925781 L 29.757812 -6.757812 C 29.496094 -6.433594 29.105469 -6.300781 28.652344 -6.300781 L 8.316406 -6.300781 L 8.316406 -12.992188 L 28.652344 -12.992188 C 29.105469 -12.992188 29.496094 -12.863281 29.757812 -12.539062 L 30.730469 -11.371094 C 30.859375 -11.175781 30.925781 -10.980469 30.925781 -10.71875 Z M 30.925781 -8.574219" transform="translate(131.439 130.162)"/></g></g></g></svg>